<svg xmlns="http://www.w3.org/2000/svg" viewBox="0 0 813 240" width="813" height="240">
<defs>
  <linearGradient id="pm_edge" x1="0" y1="0" x2="1" y2="1">
    <stop offset="0" stop-color="#2DE2E6"/><stop offset="0.5" stop-color="#5B8CFF"/><stop offset="1" stop-color="#B14CFF"/>
  </linearGradient>
  <linearGradient id="pm_floor" x1="0" y1="0" x2="1" y2="1">
    <stop offset="0" stop-color="#2DE2E6"/><stop offset="1" stop-color="#B14CFF"/>
  </linearGradient>
  <linearGradient id="pm_faceT" x1="0" y1="0" x2="0" y2="1">
    <stop offset="0" stop-color="#1BC9E8"/><stop offset="1" stop-color="#3A6BFF"/>
  </linearGradient>
  <linearGradient id="pm_faceL" x1="0" y1="0" x2="0" y2="1">
    <stop offset="0" stop-color="#173A8C"/><stop offset="1" stop-color="#0C1A4A"/>
  </linearGradient>
  <linearGradient id="pm_faceR" x1="0" y1="0" x2="0" y2="1">
    <stop offset="0" stop-color="#6A2BC9"/><stop offset="1" stop-color="#2A0F66"/>
  </linearGradient>
  <filter id="pm_glow" x="-40%" y="-40%" width="180%" height="180%">
    <feGaussianBlur stdDeviation="2.4" result="b"/>
    <feMerge><feMergeNode in="b"/><feMergeNode in="SourceGraphic"/></feMerge>
  </filter>
</defs>
<defs>
  <linearGradient id="pmm_edge" x1="0" y1="0" x2="1" y2="1">
    <stop offset="0" stop-color="#0E1430"/><stop offset="1" stop-color="#0E1430"/>
  </linearGradient>
  <linearGradient id="pmm_floor" x1="0" y1="0" x2="0" y2="1"><stop offset="0" stop-color="#0E1430"/><stop offset="1" stop-color="#0E1430"/></linearGradient>
  <linearGradient id="pmm_faceT" x1="0" y1="0" x2="0" y2="1"><stop offset="0" stop-color="#0E1430"/><stop offset="1" stop-color="#0E1430"/></linearGradient>
  <linearGradient id="pmm_faceL" x1="0" y1="0" x2="0" y2="1"><stop offset="0" stop-color="#0E1430"/><stop offset="1" stop-color="#0E1430"/></linearGradient>
  <linearGradient id="pmm_faceR" x1="0" y1="0" x2="0" y2="1"><stop offset="0" stop-color="#0E1430"/><stop offset="1" stop-color="#0E1430"/></linearGradient>
</defs>
<polygon points="89.11,110.80 158.19,150.68 89.11,190.56 20.03,150.68" fill="url(#pmm_floor)" fill-opacity="0.18" stroke="url(#pmm_edge)" stroke-opacity="0.35" stroke-width="1.2"/><line x1="112.1" y1="124.1" x2="43.1" y2="164.0" stroke="url(#pmm_edge)" stroke-opacity="0.18" stroke-width="0.8"/><line x1="66.1" y1="124.1" x2="135.2" y2="164.0" stroke="url(#pmm_edge)" stroke-opacity="0.18" stroke-width="0.8"/><line x1="135.2" y1="137.4" x2="66.1" y2="177.3" stroke="url(#pmm_edge)" stroke-opacity="0.18" stroke-width="0.8"/><line x1="43.1" y1="137.4" x2="112.1" y2="177.3" stroke="url(#pmm_edge)" stroke-opacity="0.18" stroke-width="0.8"/><g><polygon points="62.54,86.25 89.11,70.91 89.11,120.00 62.54,135.34" fill="url(#pmm_faceL)" fill-opacity="0.55" stroke="url(#pmm_edge)" stroke-width="1.6" stroke-linejoin="round"/><polygon points="115.68,86.25 89.11,101.59 89.11,150.68 115.68,135.34" fill="url(#pmm_faceR)" fill-opacity="0.55" stroke="url(#pmm_edge)" stroke-width="1.6" stroke-linejoin="round"/><polygon points="89.11,70.91 115.68,86.25 89.11,101.59 62.54,86.25" fill="url(#pmm_faceT)" fill-opacity="0.9" stroke="url(#pmm_edge)" stroke-width="1.8" stroke-linejoin="round"/><polygon points="89.11,64.78 115.68,49.44 115.68,135.34 89.11,150.68" fill="url(#pmm_faceL)" fill-opacity="0.55" stroke="url(#pmm_edge)" stroke-width="1.6" stroke-linejoin="round"/><polygon points="142.25,64.78 115.68,80.12 115.68,166.02 142.25,150.68" fill="url(#pmm_faceR)" fill-opacity="0.55" stroke="url(#pmm_edge)" stroke-width="1.6" stroke-linejoin="round"/><polygon points="115.68,49.44 142.25,64.78 115.68,80.12 89.11,64.78" fill="url(#pmm_faceT)" fill-opacity="0.9" stroke="url(#pmm_edge)" stroke-width="1.8" stroke-linejoin="round"/><polygon points="35.97,83.18 62.54,67.84 62.54,135.34 35.97,150.68" fill="url(#pmm_faceL)" fill-opacity="0.55" stroke="url(#pmm_edge)" stroke-width="1.6" stroke-linejoin="round"/><polygon points="89.11,83.18 62.54,98.52 62.54,166.02 89.11,150.68" fill="url(#pmm_faceR)" fill-opacity="0.55" stroke="url(#pmm_edge)" stroke-width="1.6" stroke-linejoin="round"/><polygon points="62.54,67.84 89.11,83.18 62.54,98.52 35.97,83.18" fill="url(#pmm_faceT)" fill-opacity="0.9" stroke="url(#pmm_edge)" stroke-width="1.8" stroke-linejoin="round"/><polygon points="62.54,135.34 89.11,120.00 89.11,150.68 62.54,166.02" fill="url(#pmm_faceL)" fill-opacity="0.55" stroke="url(#pmm_edge)" stroke-width="1.6" stroke-linejoin="round"/><polygon points="115.68,135.34 89.11,150.68 89.11,181.36 115.68,166.02" fill="url(#pmm_faceR)" fill-opacity="0.55" stroke="url(#pmm_edge)" stroke-width="1.6" stroke-linejoin="round"/><polygon points="89.11,120.00 115.68,135.34 89.11,150.68 62.54,135.34" fill="url(#pmm_faceT)" fill-opacity="0.9" stroke="url(#pmm_edge)" stroke-width="1.8" stroke-linejoin="round"/></g>
<g transform="translate(196.22,138.00) scale(0.10556,-0.10556)" fill="#0E1430"><path transform="translate(0.00,0)" d="M56 0V720H208.71759033203125L460.8917236328125 419.33966064453125L712.2144775390625 720H865.783447265625V0H720.9299926757812V504.54998779296875L460.8917236328125 194.4310302734375L200.0020751953125 503.6986083984375V0Z"/><path transform="translate(948.00,0)" d="M58 0V576.161376953125Q58 615.5467224121094 77.405517578125 648.3678436279297Q96.81103515625 681.18896484375 129.6321563720703 700.594482421875Q162.45327758789062 720 201.838623046875 720H633.3099975585938Q672.6953430175781 720 705.5164642333984 700.594482421875Q738.3375854492188 681.18896484375 758.1687927246094 648.3678436279297Q778 615.5467224121094 778 576.161376953125V0H632.295166015625V236.60723876953125H202.0020751953125V0H58ZM202.0020751953125 381.460693359375H632.295166015625V569.350341796875Q632.295166015625 571.728271484375 630.5860290527344 573.4374084472656Q628.8768920898438 575.1465454101562 626.4989624023438 575.1465454101562H207.79827880859375Q205.42034912109375 575.1465454101562 203.71121215820312 573.4374084472656Q202.0020751953125 571.728271484375 202.0020751953125 569.350341796875V381.460693359375Z"/><path transform="translate(1804.00,0)" d="M197.39276123046875 0Q158.00741577148438 0 125.18629455566406 19.405517578125Q92.36517333984375 38.81103515625 72.95965576171875 71.63215637207031Q53.55413818359375 104.45327758789062 53.55413818359375 143.838623046875V205.04241943359375H197.55621337890625V150.649658203125Q197.55621337890625 148.271728515625 199.26535034179688 146.56259155273438Q200.9744873046875 144.85345458984375 203.3524169921875 144.85345458984375H622.0531005859375Q624.4310302734375 144.85345458984375 626.1401672363281 146.56259155273438Q627.8493041992188 148.271728515625 627.8493041992188 150.649658203125V281.85137939453125Q627.8493041992188 284.22930908203125 626.1401672363281 285.8641357421875Q624.4310302734375 287.49896240234375 622.0531005859375 287.49896240234375H197.39276123046875Q158.00741577148438 287.49896240234375 125.18629455566406 306.9787902832031Q92.36517333984375 326.4586181640625 72.95965576171875 359.00726318359375Q53.55413818359375 391.555908203125 53.55413818359375 431.33758544921875V576.161376953125Q53.55413818359375 615.5467224121094 72.95965576171875 648.3678436279297Q92.36517333984375 681.18896484375 125.18629455566406 700.594482421875Q158.00741577148438 720 197.39276123046875 720H629.7155151367188Q668.7815933227539 720 701.3366584777832 700.594482421875Q733.8917236328125 681.18896484375 753.7229309082031 648.3678436279297Q773.5541381835938 615.5467224121094 773.5541381835938 576.161376953125V514.9575805664062H627.8493041992188V569.350341796875Q627.8493041992188 571.728271484375 626.1401672363281 573.4374084472656Q624.4310302734375 575.1465454101562 622.0531005859375 575.1465454101562H203.3524169921875Q200.9744873046875 575.1465454101562 199.26535034179688 573.4374084472656Q197.55621337890625 571.728271484375 197.55621337890625 569.350341796875V438.14862060546875Q197.55621337890625 435.77069091796875 199.26535034179688 434.1358642578125Q200.9744873046875 432.50103759765625 203.3524169921875 432.50103759765625H629.7155151367188Q668.7815933227539 432.50103759765625 701.3366584777832 413.0212097167969Q733.8917236328125 393.5413818359375 753.7229309082031 360.99273681640625Q773.5541381835938 328.444091796875 773.5541381835938 288.66241455078125V143.838623046875Q773.5541381835938 104.45327758789062 753.7229309082031 71.63215637207031Q733.8917236328125 38.81103515625 701.3366584777832 19.405517578125Q668.7815933227539 0 629.7155151367188 0Z"/><path transform="translate(2651.00,0)" d="M197.39276123046875 0Q158.00741577148438 0 125.18629455566406 19.405517578125Q92.36517333984375 38.81103515625 72.95965576171875 71.63215637207031Q53.55413818359375 104.45327758789062 53.55413818359375 143.838623046875V205.04241943359375H197.55621337890625V150.649658203125Q197.55621337890625 148.271728515625 199.26535034179688 146.56259155273438Q200.9744873046875 144.85345458984375 203.3524169921875 144.85345458984375H622.0531005859375Q624.4310302734375 144.85345458984375 626.1401672363281 146.56259155273438Q627.8493041992188 148.271728515625 627.8493041992188 150.649658203125V281.85137939453125Q627.8493041992188 284.22930908203125 626.1401672363281 285.8641357421875Q624.4310302734375 287.49896240234375 622.0531005859375 287.49896240234375H197.39276123046875Q158.00741577148438 287.49896240234375 125.18629455566406 306.9787902832031Q92.36517333984375 326.4586181640625 72.95965576171875 359.00726318359375Q53.55413818359375 391.555908203125 53.55413818359375 431.33758544921875V576.161376953125Q53.55413818359375 615.5467224121094 72.95965576171875 648.3678436279297Q92.36517333984375 681.18896484375 125.18629455566406 700.594482421875Q158.00741577148438 720 197.39276123046875 720H629.7155151367188Q668.7815933227539 720 701.3366584777832 700.594482421875Q733.8917236328125 681.18896484375 753.7229309082031 648.3678436279297Q773.5541381835938 615.5467224121094 773.5541381835938 576.161376953125V514.9575805664062H627.8493041992188V569.350341796875Q627.8493041992188 571.728271484375 626.1401672363281 573.4374084472656Q624.4310302734375 575.1465454101562 622.0531005859375 575.1465454101562H203.3524169921875Q200.9744873046875 575.1465454101562 199.26535034179688 573.4374084472656Q197.55621337890625 571.728271484375 197.55621337890625 569.350341796875V438.14862060546875Q197.55621337890625 435.77069091796875 199.26535034179688 434.1358642578125Q200.9744873046875 432.50103759765625 203.3524169921875 432.50103759765625H629.7155151367188Q668.7815933227539 432.50103759765625 701.3366584777832 413.0212097167969Q733.8917236328125 393.5413818359375 753.7229309082031 360.99273681640625Q773.5541381835938 328.444091796875 773.5541381835938 288.66241455078125V143.838623046875Q773.5541381835938 104.45327758789062 753.7229309082031 71.63215637207031Q733.8917236328125 38.81103515625 701.3366584777832 19.405517578125Q668.7815933227539 0 629.7155151367188 0Z"/><path transform="translate(3498.00,0)" d="M36.20172119140625 0V720H178.649658203125V0Z"/><path transform="translate(3732.00,0)" d="M56 0V720H208.71759033203125L630.295166015625 218.004150390625V720H776V0H623.2824096679688L200.0020751953125 503.6986083984375V0Z"/><path transform="translate(4584.00,0)" d="M199.838623046875 0Q160.45327758789062 0 127.63215637207031 19.405517578125Q94.81103515625 38.81103515625 75.405517578125 71.63215637207031Q56 104.45327758789062 56 143.838623046875V576.161376953125Q56 615.5467224121094 75.405517578125 648.3678436279297Q94.81103515625 681.18896484375 127.63215637207031 700.594482421875Q160.45327758789062 720 199.838623046875 720H631.3099975585938Q670.6953430175781 720 703.5164642333984 700.594482421875Q736.3375854492188 681.18896484375 756.1687927246094 648.3678436279297Q776 615.5467224121094 776 576.161376953125V513.9575805664062H630.295166015625V569.350341796875Q630.295166015625 571.728271484375 628.5860290527344 573.4374084472656Q626.8768920898438 575.1465454101562 624.4989624023438 575.1465454101562H205.79827880859375Q203.42034912109375 575.1465454101562 201.71121215820312 573.4374084472656Q200.0020751953125 571.728271484375 200.0020751953125 569.350341796875V150.649658203125Q200.0020751953125 148.271728515625 201.71121215820312 146.56259155273438Q203.42034912109375 144.85345458984375 205.79827880859375 144.85345458984375H624.4989624023438Q626.8768920898438 144.85345458984375 628.5860290527344 146.56259155273438Q630.295166015625 148.271728515625 630.295166015625 150.649658203125V269.0531005859375H471.0255126953125V414.05517578125H776V143.838623046875Q776 104.45327758789062 756.1687927246094 71.63215637207031Q736.3375854492188 38.81103515625 703.5164642333984 19.405517578125Q670.6953430175781 0 631.3099975585938 0Z"/></g>

<g transform="translate(199.22,176.00) scale(0.02153,-0.02153)" fill="#5566AA"><path transform="translate(0.00,0)" d="M184.21630859375 0Q148.47979736328125 0 118.69937133789062 17.45947265625Q88.9189453125 34.9189453125 71.45947265625 64.69937133789062Q54 94.47979736328125 54 130.21630859375V589.78369140625Q54 625.5202026367188 71.45947265625 655.3006286621094Q88.9189453125 685.0810546875 118.69937133789062 702.54052734375Q148.47979736328125 720 184.21630859375 720H643.78369140625Q679.3833770751953 720 709.0497817993164 702.54052734375Q738.7161865234375 685.0810546875 756.3580932617188 655.3006286621094Q774 625.5202026367188 774 589.78369140625V130.21630859375Q774 94.47979736328125 756.3580932617188 64.69937133789062Q738.7161865234375 34.9189453125 709.0497817993164 17.45947265625Q679.3833770751953 0 643.78369140625 0ZM186.7703857421875 108.3651123046875H640.4998779296875Q650.6619873046875 108.3651123046875 657.9660034179688 115.66912841796875Q665.27001953125 122.97314453125 665.27001953125 133.13525390625V586.86474609375Q665.27001953125 597.02685546875 657.9660034179688 604.3308715820312Q650.6619873046875 611.6348876953125 640.4998779296875 611.6348876953125H186.7703857421875Q176.6082763671875 611.6348876953125 169.30426025390625 604.3308715820312Q162.000244140625 597.02685546875 162.000244140625 586.86474609375V133.13525390625Q162.000244140625 122.97314453125 169.30426025390625 115.66912841796875Q176.6082763671875 108.3651123046875 186.7703857421875 108.3651123046875Z"/><path transform="translate(1128.00,0)" d="M56 0V719H645.4188232421875Q681.1553344726562 719 710.9357604980469 701.2229614257812Q740.7161865234375 683.4459228515625 758.3580932617188 653.891845703125Q776 624.3377685546875 776 588.78369140625V386.9053955078125Q776 351.351318359375 758.3580932617188 321.7972412109375Q740.7161865234375 292.2431640625 710.9357604980469 274.46612548828125Q681.1553344726562 256.6890869140625 645.4188232421875 256.6890869140625L164.000244140625 256.32421875V0ZM188.7703857421875 365.6893310546875H642.4998779296875Q652.6619873046875 365.6893310546875 659.9660034179688 372.67578125Q667.27001953125 379.6622314453125 667.27001953125 389.8243408203125V586.2296142578125Q667.27001953125 596.3917236328125 659.9660034179688 603.6957397460938Q652.6619873046875 610.999755859375 642.4998779296875 610.999755859375H188.7703857421875Q178.6082763671875 610.999755859375 171.30426025390625 603.6957397460938Q164.000244140625 596.3917236328125 164.000244140625 586.2296142578125V389.8243408203125Q164.000244140625 379.6622314453125 171.30426025390625 372.67578125Q178.6082763671875 365.6893310546875 188.7703857421875 365.6893310546875Z"/><path transform="translate(2219.00,0)" d="M58 0V720H717.9189453125V611.6348876953125H166.72998046875V414.5001220703125H610.027099609375V305.4998779296875H166.72998046875V108.3651123046875H717.9189453125V0Z"/><path transform="translate(3285.00,0)" d="M56 0V720H184.8785400390625L667.27001953125 146.00048828125V720H776V0H647.1214599609375L164.000244140625 574.729248046875V0Z"/><path transform="translate(6187.00,0)" d="M58 0V589.78369140625Q58 625.5202026367188 75.45947265625 655.3006286621094Q92.9189453125 685.0810546875 122.69937133789062 702.54052734375Q152.47979736328125 720 188.21630859375 720H647.4188232421875Q683.1553344726562 720 712.9357604980469 702.54052734375Q742.7161865234375 685.0810546875 760.3580932617188 655.3006286621094Q778 625.5202026367188 778 589.78369140625V0H669.27001953125V251.6890869140625H166.000244140625V0H58ZM166.000244140625 360.05419921875H669.27001953125V586.86474609375Q669.27001953125 597.02685546875 661.9660034179688 604.3308715820312Q654.6619873046875 611.6348876953125 644.4998779296875 611.6348876953125H190.7703857421875Q180.6082763671875 611.6348876953125 173.30426025390625 604.3308715820312Q166.000244140625 597.02685546875 166.000244140625 586.86474609375V360.05419921875Z"/><path transform="translate(7323.00,0)" d="M58 0V720H717.9189453125V611.6348876953125H166.72998046875V414.5001220703125H610.027099609375V305.4998779296875H166.72998046875V108.3651123046875H717.9189453125V0Z"/><path transform="translate(8389.00,0)" d="M186.21630859375 0Q150.29736328125 0 120.608154296875 17.45947265625Q90.9189453125 34.9189453125 73.45947265625 64.608154296875Q56 94.29736328125 56 130.21630859375V589.78369140625Q56 625.70263671875 73.45947265625 655.391845703125Q90.9189453125 685.0810546875 120.608154296875 702.54052734375Q150.29736328125 720 186.21630859375 720H774V611.6348876953125H200.81103515625Q184.81103515625 611.6348876953125 174.4056396484375 601.4119262695312Q164.000244140625 591.18896484375 164.000244140625 574.8240966796875V145.1759033203125Q164.000244140625 129.1759033203125 174.4056396484375 118.7705078125Q184.81103515625 108.3651123046875 200.81103515625 108.3651123046875H774V0Z"/><path transform="translate(11281.00,0)" d="M56 0V719H645.4188232421875Q681.1553344726562 719 710.9357604980469 701.2229614257812Q740.7161865234375 683.4459228515625 758.3580932617188 653.891845703125Q776 624.3377685546875 776 588.78369140625V386.9053955078125Q776 351.351318359375 758.3580932617188 321.7972412109375Q740.7161865234375 292.2431640625 710.9357604980469 274.46612548828125Q681.1553344726562 256.6890869140625 645.4188232421875 256.6890869140625L164.000244140625 256.32421875V0ZM188.7703857421875 365.6893310546875H642.4998779296875Q652.6619873046875 365.6893310546875 659.9660034179688 372.67578125Q667.27001953125 379.6622314453125 667.27001953125 389.8243408203125V586.2296142578125Q667.27001953125 596.3917236328125 659.9660034179688 603.6957397460938Q652.6619873046875 610.999755859375 642.4998779296875 610.999755859375H188.7703857421875Q178.6082763671875 610.999755859375 171.30426025390625 603.6957397460938Q164.000244140625 596.3917236328125 164.000244140625 586.2296142578125V389.8243408203125Q164.000244140625 379.6622314453125 171.30426025390625 372.67578125Q178.6082763671875 365.6893310546875 188.7703857421875 365.6893310546875Z"/><path transform="translate(12372.00,0)" d="M57 0V721H165.000244140625V108.3651123046875H777V0Z"/><path transform="translate(13451.00,0)" d="M58 0V589.78369140625Q58 625.5202026367188 75.45947265625 655.3006286621094Q92.9189453125 685.0810546875 122.69937133789062 702.54052734375Q152.47979736328125 720 188.21630859375 720H647.4188232421875Q683.1553344726562 720 712.9357604980469 702.54052734375Q742.7161865234375 685.0810546875 760.3580932617188 655.3006286621094Q778 625.5202026367188 778 589.78369140625V0H669.27001953125V251.6890869140625H166.000244140625V0H58ZM166.000244140625 360.05419921875H669.27001953125V586.86474609375Q669.27001953125 597.02685546875 661.9660034179688 604.3308715820312Q654.6619873046875 611.6348876953125 644.4998779296875 611.6348876953125H190.7703857421875Q180.6082763671875 611.6348876953125 173.30426025390625 604.3308715820312Q166.000244140625 597.02685546875 166.000244140625 586.86474609375V360.05419921875Z"/><path transform="translate(14587.00,0)" d="M326.135009765625 0V611.6348876953125H20V720H740V611.6348876953125H434.5001220703125V0Z"/><path transform="translate(15646.00,0)" d="M58 0V720H717.9189453125V611.6348876953125H166.72998046875V414.5001220703125H610.027099609375V305.4998779296875H166.72998046875V0Z"/><path transform="translate(16669.00,0)" d="M184.21630859375 0Q148.47979736328125 0 118.69937133789062 17.45947265625Q88.9189453125 34.9189453125 71.45947265625 64.69937133789062Q54 94.47979736328125 54 130.21630859375V589.78369140625Q54 625.5202026367188 71.45947265625 655.3006286621094Q88.9189453125 685.0810546875 118.69937133789062 702.54052734375Q148.47979736328125 720 184.21630859375 720H643.78369140625Q679.3833770751953 720 709.0497817993164 702.54052734375Q738.7161865234375 685.0810546875 756.3580932617188 655.3006286621094Q774 625.5202026367188 774 589.78369140625V130.21630859375Q774 94.47979736328125 756.3580932617188 64.69937133789062Q738.7161865234375 34.9189453125 709.0497817993164 17.45947265625Q679.3833770751953 0 643.78369140625 0ZM186.7703857421875 108.3651123046875H640.4998779296875Q650.6619873046875 108.3651123046875 657.9660034179688 115.66912841796875Q665.27001953125 122.97314453125 665.27001953125 133.13525390625V586.86474609375Q665.27001953125 597.02685546875 657.9660034179688 604.3308715820312Q650.6619873046875 611.6348876953125 640.4998779296875 611.6348876953125H186.7703857421875Q176.6082763671875 611.6348876953125 169.30426025390625 604.3308715820312Q162.000244140625 597.02685546875 162.000244140625 586.86474609375V133.13525390625Q162.000244140625 122.97314453125 169.30426025390625 115.66912841796875Q176.6082763671875 108.3651123046875 186.7703857421875 108.3651123046875Z"/><path transform="translate(17797.00,0)" d="M646.1214599609375 0 420.6080322265625 268.6890869140625H562.000244140625L772.45947265625 19.97314453125V0ZM56 0V719H645.4188232421875Q681.1553344726562 719 710.9357604980469 701.2229614257812Q740.7161865234375 683.4459228515625 758.3580932617188 653.891845703125Q776 624.3377685546875 776 588.78369140625V386.9053955078125Q776 351.351318359375 758.3580932617188 321.7972412109375Q740.7161865234375 292.2431640625 710.9357604980469 274.46612548828125Q681.1553344726562 256.6890869140625 645.4188232421875 256.6890869140625L164.000244140625 256.32421875V0ZM188.7703857421875 365.6893310546875H642.4998779296875Q652.6619873046875 365.6893310546875 659.9660034179688 372.67578125Q667.27001953125 379.6622314453125 667.27001953125 389.8243408203125V586.2296142578125Q667.27001953125 596.3917236328125 659.9660034179688 603.6957397460938Q652.6619873046875 610.999755859375 642.4998779296875 610.999755859375H188.7703857421875Q178.6082763671875 610.999755859375 171.30426025390625 603.6957397460938Q164.000244140625 596.3917236328125 164.000244140625 586.2296142578125V389.8243408203125Q164.000244140625 379.6622314453125 171.30426025390625 372.67578125Q178.6082763671875 365.6893310546875 188.7703857421875 365.6893310546875Z"/><path transform="translate(18922.00,0)" d="M56 0V720H184.8785400390625L463.810791015625 387.7164306640625L742.378173828125 720H871.62158203125V0H763.2564697265625V575.0941162109375L463.810791015625 218.756591796875L164.000244140625 574.729248046875V0Z"/></g>
</svg>